<svg xmlns="http://www.w3.org/2000/svg" viewBox="0 0 97 87"><defs><style>.cls-1{fill:#fff;}</style></defs><title>managed services</title><g id="Layer_7" data-name="Layer 7"><path class="cls-1" d="M54.1,85H42.9l-.2-1.62c-.11-.89-.22-1.77-.31-2.66-.17-1.54-.33-3.09-.5-4.68l-.16-1.56a28.84,28.84,0,0,1-6.94-2.88l-8.11,6.54-8-8L25.21,62a28.3,28.3,0,0,1-2.88-6.93L11.84,53.94V47.83H36.76l0,.48a11.84,11.84,0,0,0,4.36,9,11.68,11.68,0,0,0,13.09,1.11,11.72,11.72,0,0,0,4.35-4.27,12.33,12.33,0,0,0,1.64-5.91l0-.48H85.16v6.13L74.68,55.06A28.4,28.4,0,0,1,71.79,62l6.54,8.11-8,8-8.11-6.53a27.74,27.74,0,0,1-6.93,2.87l-.12,1.09c-.12,1.15-.24,2.28-.36,3.4l-.45,3.89ZM43.79,84h9.42l.15-1.27c.15-1.29.3-2.58.44-3.88.13-1.12.25-2.25.37-3.39l.19-1.78.33-.09a26.86,26.86,0,0,0,7.31-3l.3-.18,7.94,6.41L77,70l-6.42-8,.19-.3a27.56,27.56,0,0,0,3-7.31l.09-.33L84.16,53V48.81h-23a13,13,0,0,1-1.75,5.9,12.73,12.73,0,0,1-4.72,4.64A12.71,12.71,0,0,1,40.5,58.13a12.73,12.73,0,0,1-4.69-9.3h-23V53l10.27,1.1.09.33a27.53,27.53,0,0,0,3.05,7.31l.18.3L20,70l6.74,6.74,8-6.41.3.18a28.3,28.3,0,0,0,7.32,3l.34.09.23,2.25c.16,1.58.32,3.13.49,4.68.1.88.21,1.75.32,2.63Z"/><path class="cls-1" d="M48.45,21.19A9.84,9.84,0,0,1,46.92,1.64a.6.6,0,0,0,.14,0l.31-.09,2.4,0,.64.17c.48.13,1,.25,1.46.43a9.8,9.8,0,0,1,6.45,10.09,9.92,9.92,0,0,1-8.26,8.85A9.71,9.71,0,0,1,48.45,21.19Zm-1-18.69a1.78,1.78,0,0,1-.39.13,8.82,8.82,0,0,0-4.6,15.2,8.73,8.73,0,0,0,7.41,2.24,8.9,8.9,0,0,0,7.42-8,8.8,8.8,0,0,0-5.79-9.06,13.69,13.69,0,0,0-1.37-.4l-.6-.16Z"/><path class="cls-1" d="M66.67,43.89H29.82l0-.7a4,4,0,0,1,0-.47V38.86q0-3.54,0-7.08a8.92,8.92,0,0,1,8.68-9c.82,0,1.64,0,2.46,0h5.76q5.73,0,11.44,0a9.06,9.06,0,0,1,6.35,2.4,7.85,7.85,0,0,1,2.76,5.63c.07,2.95.07,5.95.06,8.85,0,1.16,0,2.32,0,3.47a.91.91,0,0,1-.06.32l-.1.37Zm-35.91-1H66.23c0-1.08,0-2.16,0-3.24,0-2.9,0-5.89-.06-8.83a6.86,6.86,0,0,0-2.44-4.92,7.85,7.85,0,0,0-5.63-2.13h0q-5.71,0-11.44,0H40.87c-.8,0-1.61,0-2.41,0a7.72,7.72,0,0,0-5.88,2.84,7.63,7.63,0,0,0-1.84,5.15q0,3.56,0,7.09v3.86C30.75,42.78,30.76,42.84,30.76,42.89Z"/><path class="cls-1" d="M12.34,43.38c0-.24-.05-.45-.05-.66,0-3.16,0-6.32,0-9.49a7.62,7.62,0,0,1,1.9-5.31,6.54,6.54,0,0,1,4.58-2.4c2.67-.15,5.35-.15,8.12-.21a5.43,5.43,0,0,1-.18.61,13.45,13.45,0,0,0-1.31,6.14c0,3.46,0,6.92,0,10.38v.94Z"/><path class="cls-1" d="M84.71,43.4H71.59v-1c0-3.83,0-7.67,0-11.5a11.57,11.57,0,0,0-1.13-4.73c-.11-.24-.2-.48-.32-.77.27,0,.48,0,.69,0,2,0,4.08,0,6.12,0a7.54,7.54,0,0,1,5.24,1.88A6.67,6.67,0,0,1,84.58,32c.12,2.73.1,5.47.13,8.2C84.72,41.22,84.71,42.26,84.71,43.4Z"/><path class="cls-1" d="M68.47,23c-2.88-2.76-3.92-3.36-7.41-4.35A8.09,8.09,0,0,1,62.32,8.9,8.29,8.29,0,0,1,72,7.19a8.42,8.42,0,0,1,4.48,9.43A8.45,8.45,0,0,1,68.47,23Z"/><path class="cls-1" d="M36,18.7A13.36,13.36,0,0,0,28.58,23a8.32,8.32,0,0,1-7.92-5.91,8.22,8.22,0,0,1,3.47-9.42,8.15,8.15,0,0,1,10.36,1A8.21,8.21,0,0,1,36,18.7Z"/></g></svg>